<svg xmlns="http://www.w3.org/2000/svg" class="rubicons eye-hidden" width="48" height="48" viewBox="0 0 24 24" stroke="#002c88" stroke-width="2" fill="none">
  <path d="M8.5 7c-1.4261.7023-2.7111 1.6784-4.053 3.2769L3 12l1.447 1.7231c3.4541 4.1147 7.2961 5.2604 10.9662 3.4371M12 6c2.5797 0 5.1595 1.4256 7.553 4.2769L21 12l-1.447 1.7231c-.5098.6073-1.0281 1.1499-1.553 1.6279" stroke-linecap="round"></path>
  <path d="M10.3411 9.5C9.5327 10.0375 9 10.9565 9 12c0 1.6569 1.3431 3 3 3 .658 0 1.0054-.1408 1.5-.5m0-5.0986c.1792.1036.3467.2253.5.3625.3715.3325.6597.7563.8293 1.2361.0723.2046.1231.4194.1495.6416M6 3l12 18" stroke-linecap="round"></path>
</svg>